<svg width="96" height="96" viewBox="0 0 96 96" fill="none" xmlns="http://www.w3.org/2000/svg" role="img" aria-label="Shiftr">
  <defs>
    <linearGradient id="tileBg" x1="0" y1="0" x2="1" y2="1" gradientUnits="objectBoundingBox">
      <stop offset="0" stop-color="#dfe4ff"/>
      <stop offset="1" stop-color="#eceffe"/>
    </linearGradient>
    <radialGradient id="tileGlow" cx="0.5" cy="0" r="0.92" gradientUnits="objectBoundingBox">
      <stop offset="0" stop-color="#4977fd" stop-opacity="0.20"/>
      <stop offset="0.62" stop-color="#4977fd" stop-opacity="0"/>
    </radialGradient>
    <linearGradient id="sGrad" x1="0" y1="0" x2="1" y2="1" gradientUnits="objectBoundingBox">
      <stop offset="0" stop-color="#4977fd"/>
      <stop offset="1" stop-color="#8b5cf6"/>
    </linearGradient>
    <filter id="sShadow" x="-40%" y="-40%" width="180%" height="180%">
      <feDropShadow dx="0" dy="4" stdDeviation="4" flood-color="rgba(73,119,253,0.35)"/>
    </filter>
    <clipPath id="tileClip"><rect width="96" height="96" rx="26"/></clipPath>
  </defs>
  <g clip-path="url(#tileClip)">
    <rect width="96" height="96" fill="#eef1ff"/>
    <rect width="96" height="96" fill="url(#tileBg)"/>
    <rect width="96" height="96" fill="url(#tileGlow)"/>
    <rect x="0" y="0" width="96" height="1.4" fill="rgba(255,255,255,0.7)"/>
    <path d="M8.034 21.684Q5.928 21.684 4.316 20.93Q2.704 20.176 1.794 18.772Q0.884 17.368 0.884 15.392V14.664H4.264V15.392Q4.264 17.03 5.278 17.849Q6.292 18.668 8.034 18.668Q9.802 18.668 10.673 17.966Q11.544 17.264 11.544 16.172Q11.544 15.418 11.115 14.95Q10.686 14.482 9.867 14.183Q9.048 13.884 7.878 13.624L7.28 13.494Q5.408 13.078 4.069 12.441Q2.73 11.804 2.015 10.764Q1.3 9.724 1.3 8.06Q1.3 6.396 2.093 5.213Q2.886 4.03 4.329 3.393Q5.772 2.756 7.722 2.756Q9.672 2.756 11.193 3.419Q12.714 4.082 13.585 5.395Q14.456 6.708 14.456 8.684V9.464H11.076V8.684Q11.076 7.644 10.673 7.007Q10.27 6.37 9.516 6.071Q8.762 5.772 7.722 5.772Q6.162 5.772 5.421 6.357Q4.68 6.942 4.68 7.956Q4.68 8.632 5.031 9.1Q5.382 9.568 6.084 9.88Q6.786 10.192 7.878 10.426L8.476 10.556Q10.426 10.972 11.869 11.622Q13.312 12.272 14.118 13.338Q14.924 14.404 14.924 16.068Q14.924 17.732 14.079 18.993Q13.234 20.254 11.687 20.969Q10.14 21.684 8.034 21.684Z" fill="url(#sGrad)" filter="url(#sShadow)" transform="translate(25.867 14.333) scale(2.7333)"/>
  </g>
  <rect x="0.5" y="0.5" width="95" height="95" rx="25.5" fill="none" stroke="rgba(73,119,253,0.18)"/>
</svg>